<svg xmlns="http://www.w3.org/2000/svg" viewBox="0 0 864 306.1756">
  <title>techquarter-logo-full-color-rgb</title>
  <g id="full-rgb">
    <g>
      <g id="logoMark">
        <path id="logoMark_PathItem_" data-name="logoMark &lt;PathItem&gt;" d="M306.1756,153.0878a152.498,152.498,0,0,1-13.5228,62.9577l-62.9573-62.9577L292.589,90.1943A151.02,151.02,0,0,1,306.1756,153.0878Z" style="fill: #fcaf17"/>
        <path id="logoMark_PathItem_2" data-name="logoMark &lt;PathItem&gt;" d="M215.9813,13.5231,13.5227,215.9816A150.978,150.978,0,0,1,0,153.0878,153.0749,153.0749,0,0,1,215.9813,13.5231Z" style="fill: #f15b40"/>
        <path id="logoMark_PathItem_3" data-name="logoMark &lt;PathItem&gt;" d="M292.5888,90.1942a152.86,152.86,0,0,0-76.6077-76.6708L13.5225,215.9819A152.87,152.87,0,0,0,90.1941,292.59Z" style="fill: #f7941d"/>
        <path id="logoMark_PathItem_4" data-name="logoMark &lt;PathItem&gt;" d="M229.504,306.1756H153.0878a151.018,151.018,0,0,1-62.8935-13.5862l62.8935-62.83Z" style="fill: #fcaf17"/>
        <path id="logoMark_PathItem_5" data-name="logoMark &lt;PathItem&gt;" d="M346.5526,306.1756H229.504L102.7489,179.4205a15.4254,15.4254,0,0,1,10.9074-26.3327H229.6955l62.9573,62.9577,64.552,64.4881A15.0279,15.0279,0,0,1,346.5526,306.1756Z" style="fill: #ffc233"/>
      </g>
      <path id="fullLogo" d="M423.2453,89.6478h6.634v24.07c0,15.9635,7.8439,24.4011,22.6883,24.4011a32.9735,32.9735,0,0,0,18.8993-6.0922,1.6553,1.6553,0,0,0,.5579-2.1151l-5.0735-10.2087a1.6464,1.6464,0,0,0-1.0381-.86,1.6716,1.6716,0,0,0-1.3365.1946c-3.737,2.3616-7.7076,3.7176-10.9062,3.7176-4.9892,0-7.63-3.2083-7.63-9.2777v-23.83h18.77a1.662,1.662,0,0,0,1.6609-1.6609V76.3736a1.662,1.662,0,0,0-1.6609-1.6609h-18.77V58.6518a1.662,1.662,0,0,0-1.6609-1.6609H431.54a1.662,1.662,0,0,0-1.6609,1.6609V74.7127h-6.634a1.6621,1.6621,0,0,0-1.661,1.6609V87.9869A1.6621,1.6621,0,0,0,423.2453,89.6478Z" style="fill: #3b3b3c"/>
      <path id="fullLogo-2" data-name="fullLogo" d="M506.8974,138.1191c10.2574,0,18.2505-2.7477,25.16-8.6517a1.6636,1.6636,0,0,0,.2855-2.2124l-6.3582-9.1057a1.6759,1.6759,0,0,0-1.1224-.6943,1.5771,1.5771,0,0,0-1.2781.3472,26.4464,26.4464,0,0,1-15.8889,5.8066c-7.9672,0-13.4819-4.1944-15.3764-11.5874h41.2242a1.6617,1.6617,0,0,0,1.6545-1.5149c.1362-1.5149.253-3.2115.253-4.9146v-.0065c-.0584-19.0777-12.1259-32.4006-29.3449-32.4006-18.1466,0-30.8175,13.3521-30.8175,32.4687S488.2835,138.1191,506.8974,138.1191ZM492.358,98.9775c1.1872-4.8238,4.47-11.1009,13.5013-11.1009,6.65,0,11.1592,3.922,12.84,11.1009Z" style="fill: #3b3b3c"/>
      <path id="fullLogo-3" data-name="fullLogo" d="M574.9816,138.1191c9.4074,0,17.6276-3.5262,23.1359-9.93a1.6676,1.6676,0,0,0-.0195-2.1929l-7.8828-8.8009a1.688,1.688,0,0,0-1.1678-.5514,1.928,1.928,0,0,0-1.2068.4476,19.6108,19.6108,0,0,1-13.2289,5.664c-9.0571,0-15.6358-7.1919-15.6358-17.1022s6.5787-17.1021,15.6358-17.1021c4.8206,0,8.8106,1.7258,12.924,5.5991a1.7779,1.7779,0,0,0,1.1873.4509,1.6846,1.6846,0,0,0,1.1613-.5256l8.1877-8.7424a1.6663,1.6663,0,0,0,.0584-2.2027c-5.3914-6.4133-13.6116-9.9459-23.1488-9.9459-19.1134,0-32.4656,13.3521-32.4656,32.4687S555.8682,138.1191,574.9816,138.1191Z" style="fill: #3b3b3c"/>
      <path id="fullLogo-4" data-name="fullLogo" d="M649.891,134.93a1.6621,1.6621,0,0,0,1.6609,1.661h12.84a1.6621,1.6621,0,0,0,1.6609-1.661V98.134c0-14.6886-10.4585-24.9492-25.4391-24.9492-4.8011,0-11.1268,1.0867-16.1809,5.7385V46.9152a1.662,1.662,0,0,0-1.6609-1.6609H609.932a1.6621,1.6621,0,0,0-1.661,1.6609V134.93a1.6621,1.6621,0,0,0,1.661,1.661h12.8395a1.6621,1.6621,0,0,0,1.6609-1.661V102.4745c0-10.1893,7.2665-13.8031,13.4949-13.8031,7.7141,0,11.9637,4.8595,11.9637,13.683Z" style="fill: #3b3b3c"/>
      <path id="fullLogo-5" data-name="fullLogo" d="M483.1321,174.88H470.3574a1.662,1.662,0,0,0-1.6609,1.6609v2.8709a24.4,24.4,0,0,0-16.7388-6.06c-17.6341,0-30.9344,13.9587-30.9344,32.4687,0,18.5068,13.3,32.4623,30.9344,32.4623a24.4612,24.4612,0,0,0,16.7388-6.0045v27.2654a1.662,1.662,0,0,0,1.6609,1.6609h12.7747a1.662,1.662,0,0,0,1.6609-1.6609V176.5405A1.662,1.662,0,0,0,483.1321,174.88ZM469.4881,205.82c0,10.0693-6.5788,17.1022-16.0057,17.1022-9.4205,0-15.9992-7.0329-15.9992-17.1022,0-10.0724,6.5787-17.1053,15.9992-17.1053C462.9093,188.7151,469.4881,195.748,469.4881,205.82Z" style="fill: #3b3b3c"/>
      <path id="fullLogo-6" data-name="fullLogo" d="M555.6086,174.88H542.7755a1.662,1.662,0,0,0-1.6609,1.6609V209.12c0,9.1576-4.25,13.803-12.6384,13.803s-12.645-4.6454-12.645-13.803V176.5405A1.662,1.662,0,0,0,514.17,174.88H501.3372a1.662,1.662,0,0,0-1.6609,1.6609v33.74c0,20.6672,15.5126,28.0018,28.8,28.0018,13.2807,0,28.7933-7.3346,28.7933-28.0018v-33.74A1.662,1.662,0,0,0,555.6086,174.88Z" style="fill: #3b3b3c"/>
      <path id="fullLogo-7" data-name="fullLogo" d="M630.051,174.88H617.2763a1.662,1.662,0,0,0-1.6609,1.6609v2.8709a24.4,24.4,0,0,0-16.7389-6.06c-17.6341,0-30.9343,13.9587-30.9343,32.4687,0,18.5068,13.3,32.4623,30.9343,32.4623a24.4616,24.4616,0,0,0,16.7389-6.0045v2.8157a1.662,1.662,0,0,0,1.6609,1.6609H630.051a1.662,1.662,0,0,0,1.6609-1.6609V176.5405A1.662,1.662,0,0,0,630.051,174.88ZM616.4069,205.82c0,10.0693-6.5788,17.1022-15.9992,17.1022-9.4269,0-16.0057-7.0329-16.0057-17.1022,0-10.0724,6.5788-17.1053,16.0057-17.1053C609.8281,188.7151,616.4069,195.748,616.4069,205.82Z" style="fill: #3b3b3c"/>
      <path id="fullLogo-8" data-name="fullLogo" d="M688.9612,175.12a27.2881,27.2881,0,0,0-10.452-1.7679c-6.2154,0-11.4317,1.8458-15.3244,5.3785v-2.19a1.662,1.662,0,0,0-1.6609-1.6609h-12.658a1.662,1.662,0,0,0-1.6609,1.6609v58.5534a1.662,1.662,0,0,0,1.6609,1.6609h12.7747a1.662,1.662,0,0,0,1.6609-1.6609V202.8847c0-8.6646,4.7038-14.0464,12.2752-14.0464a21.2594,21.2594,0,0,1,8.9533,1.95,1.6357,1.6357,0,0,0,1.4533.039,1.6658,1.6658,0,0,0,.9278-1.1224l3.0558-12.6515A1.659,1.659,0,0,0,688.9612,175.12Z" style="fill: #3b3b3c"/>
      <path id="fullLogo-9" data-name="fullLogo" d="M741.416,219.87a1.6613,1.6613,0,0,0-2.3745-.665c-3.7371,2.3616-7.7142,3.7176-10.9062,3.7176-4.9892,0-7.63-3.2083-7.63-9.281V189.8148h18.77a1.662,1.662,0,0,0,1.6609-1.6609V176.5405a1.662,1.662,0,0,0-1.6609-1.6609h-18.77V158.8155a1.662,1.662,0,0,0-1.6609-1.6609H706.0115a1.662,1.662,0,0,0-1.6609,1.6609V174.88H697.71a1.662,1.662,0,0,0-1.6609,1.6609v11.6134a1.662,1.662,0,0,0,1.6609,1.6609h6.6406v24.07c0,15.96,7.8439,24.3978,22.6817,24.3978a32.9637,32.9637,0,0,0,18.8993-6.0889,1.6552,1.6552,0,0,0,.558-2.115Z" style="fill: #3b3b3c"/>
      <path id="fullLogo-10" data-name="fullLogo" d="M780.5706,173.3517c-18.1467,0-30.8176,13.3521-30.8176,32.4687,0,19.1134,12.9953,32.4623,31.6091,32.4623,10.2574,0,18.257-2.7476,25.16-8.6516a1.6636,1.6636,0,0,0,.2854-2.2124l-6.3581-9.1025a1.6756,1.6756,0,0,0-1.1224-.6942,1.6968,1.6968,0,0,0-1.2782.3471,26.4759,26.4759,0,0,1-15.8889,5.8066c-7.9671,0-13.4818-4.1944-15.3763-11.5906h41.2307a1.66,1.66,0,0,0,1.6544-1.5214c.13-1.5085.2465-3.2051.2465-4.9081v-.0065C809.857,186.6746,797.79,173.3517,780.5706,173.3517Zm-13.7479,25.7927c1.1873-4.8238,4.4637-11.1008,13.5014-11.1008,6.6566,0,11.1657,3.9219,12.8395,11.1008Z" style="fill: #3b3b3c"/>
      <path id="fullLogo-11" data-name="fullLogo" d="M862.9477,175.12a27.2545,27.2545,0,0,0-10.4456-1.7679c-6.2154,0-11.4317,1.8458-15.3309,5.3785v-2.19A1.662,1.662,0,0,0,835.51,174.88h-12.658a1.662,1.662,0,0,0-1.6609,1.6609v58.5534a1.662,1.662,0,0,0,1.6609,1.6609H835.627a1.6621,1.6621,0,0,0,1.661-1.6609V202.8847c0-8.6646,4.7037-14.0464,12.2816-14.0464a21.153,21.153,0,0,1,8.94,1.95,1.6484,1.6484,0,0,0,1.46.039,1.6658,1.6658,0,0,0,.9278-1.1224l3.0558-12.6515A1.659,1.659,0,0,0,862.9477,175.12Z" style="fill: #3b3b3c"/>
    </g>
  </g>
</svg>
